<svg width="1254" height="1254" viewBox="0 0 1254 1254" xmlns="http://www.w3.org/2000/svg">
<path fill-rule="evenodd" fill="#63AF21" d="M586.5,242.0 L601.0,243.5 L609.0,247.5 L619.5,258.0 L634.5,288.0 L637.5,290.0 L715.5,429.0 L719.5,440.0 L676.0,463.5 L617.5,359.0 L603.0,350.5 L591.0,352.5 L580.5,363.0 L470.5,566.0 L469.5,573.0 L475.0,574.5 L491.0,568.5 L649.0,501.5 L729.0,459.5 L785.0,420.5 L790.0,413.5 L789.5,417.0 L771.5,438.0 L737.0,470.5 L700.0,498.5 L558.0,594.5 L486.0,639.5 L444.0,659.5 L415.0,667.5 L402.0,667.5 L391.0,664.5 L376.5,654.0 L367.5,636.0 L367.5,620.0 L374.5,603.0 L557.5,260.0 L571.0,246.5 L586.0,242.5 Z M744.5,482.0 L748.5,482.0 L745.5,486.0 L747.5,490.0 L817.5,616.0 L818.5,631.0 L816.5,640.0 L810.5,651.0 L803.0,658.5 L793.0,664.5 L781.0,667.5 L513.5,667.0 L606.0,605.5 L747.0,606.5 L703.5,526.0 L744.5,483.0 Z M776.5,363.0 L805.0,362.5 L809.5,365.0 L809.5,397.0 L806.0,399.5 L777.0,399.5 L773.5,395.0 L773.5,367.0 L776.0,363.5 Z M814.5,321.0 L835.0,320.5 L837.5,324.0 L837.5,344.0 L835.0,346.5 L816.0,346.5 L812.5,343.0 L814.0,321.5 Z M824.5,395.0 L843.0,394.5 L846.5,399.0 L846.5,417.0 L844.0,419.5 L824.0,419.5 L821.5,417.0 L821.5,398.0 L824.0,395.5 Z M846.5,357.0 L868.0,357.5 L869.5,379.0 L867.0,381.5 L847.0,381.5 L844.5,379.0 L846.0,357.5 Z M870.5,305.0 L887.5,306.0 L887.5,324.0 L871.0,325.5 L868.5,323.0 L870.0,305.5 Z M795.5,428.0 L813.5,430.0 L813.5,447.0 L795.0,447.5 L795.0,428.5 Z M833.5,284.0 L845.0,284.5 L846.5,297.0 L844.0,299.5 L834.0,299.5 L831.5,297.0 L833.0,284.5 Z M863.5,265.0 L870.0,264.5 L871.5,271.0 L865.0,272.5 L863.0,265.5 Z M749.5,477.0 L750.5,479.0 L747.0,480.5 L749.0,477.5 Z"/>
</svg>
